<svg width="48" height="48" viewBox="0 0 48 48" fill="none" xmlns="http://www.w3.org/2000/svg">
    <path fill-rule="evenodd" clip-rule="evenodd" d="M17.628 24.0093L28.4133 13.1766C28.4223 13.1676 28.4319 13.158 28.4409 13.1484C28.6835 12.8836 28.6709 12.4663 28.4133 12.2172C28.2842 12.0869 28.1095 12.0142 27.9288 12.0142C27.7535 12.0172 27.5866 12.0905 27.4623 12.2172L16.1925 23.5296C15.9409 23.7968 15.9409 24.2219 16.1925 24.4891L27.4623 35.8201C27.7295 36.0789 28.1462 36.0789 28.4133 35.8201C28.4223 35.8105 28.4319 35.8015 28.4409 35.7919C28.6835 35.5272 28.6709 35.1099 28.4133 34.8607L17.628 24.0093Z" fill="#28A9E0"/>
</svg>
