<svg width="48" height="48" viewBox="0 0 48 48" fill="none" xmlns="http://www.w3.org/2000/svg">
<path fill-rule="evenodd" clip-rule="evenodd" d="M30.3822 22.5031L19.1036 11.191C18.9795 11.0644 18.8121 10.9912 18.6369 10.9876C18.4557 10.9876 18.2818 11.0602 18.1516 11.191C17.8942 11.44 17.8816 11.8569 18.124 12.1221C18.1336 12.1317 18.1426 12.1413 18.1516 12.1503L28.9448 22.983L18.1516 33.8344C17.8942 34.0834 17.8816 34.5009 18.124 34.7655C18.1336 34.7751 18.1426 34.7847 18.1516 34.7937C18.4197 35.0523 18.8367 35.0523 19.1036 34.7937L30.3822 23.463C30.6335 23.1954 30.6335 22.7707 30.3822 22.5031Z" fill="#28A9E0"/>
</svg>
